<?xml version="1.0" encoding="UTF-8" standalone="no"?>
<!-- Created with Inkscape (http://www.inkscape.org/) -->

<svg
   xmlns:dc="http://purl.org/dc/elements/1.1/"
   xmlns:cc="http://creativecommons.org/ns#"
   xmlns:rdf="http://www.w3.org/1999/02/22-rdf-syntax-ns#"
   xmlns:svg="http://www.w3.org/2000/svg"
   xmlns="http://www.w3.org/2000/svg"
   xmlns:sodipodi="http://sodipodi.sourceforge.net/DTD/sodipodi-0.dtd"
   xmlns:inkscape="http://www.inkscape.org/namespaces/inkscape"
   width="1585.624"
   height="1585.624"
   viewBox="0 0 419.52968 419.5297"
   version="1.1"
   id="svg8"
   inkscape:version="0.92.4 (5da689c313, 2019-01-14)"
   sodipodi:docname="logo.svg">
  <defs
     id="defs2" />
  <sodipodi:namedview
     id="base"
     pagecolor="#000000"
     bordercolor="#666666"
     borderopacity="1.0"
     inkscape:pageopacity="0"
     inkscape:pageshadow="2"
     inkscape:zoom="0.32"
     inkscape:cx="694.90522"
     inkscape:cy="617.12293"
     inkscape:document-units="mm"
     inkscape:current-layer="layer1"
     showgrid="false"
     inkscape:window-width="1920"
     inkscape:window-height="1016"
     inkscape:window-x="0"
     inkscape:window-y="27"
     inkscape:window-maximized="1"
     showborder="true"
     units="px"
     fit-margin-top="0"
     fit-margin-left="0"
     fit-margin-right="0"
     fit-margin-bottom="0" />
  <metadata
     id="metadata5">
    <rdf:RDF>
      <cc:Work
         rdf:about="">
        <dc:format>image/svg+xml</dc:format>
        <dc:type
           rdf:resource="http://purl.org/dc/dcmitype/StillImage" />
        <dc:title></dc:title>
      </cc:Work>
    </rdf:RDF>
  </metadata>
  <g
     inkscape:label="Layer 1"
     inkscape:groupmode="layer"
     id="layer1"
     transform="translate(-190.51195,9.9047394)">
    <path
       id="path1543"
       style="font-style:normal;font-variant:normal;font-weight:normal;font-stretch:normal;font-size:129.70799255px;line-height:1.25;font-family:Monoton;-inkscape-font-specification:Monoton;letter-spacing:0px;word-spacing:0px;fill:none;fill-opacity:1;stroke:#000000;stroke-width:3;stroke-miterlimit:4;stroke-dasharray:none"
       d="m 367.93984,151.6522 -4.95746,2.8139 q -8.11961,-14.08591 -21.91764,-22.89782 -13.71891,-8.80642 -30.25518,-9.95404 -13.29232,-0.92249 -25.83273,3.55139 -12.45589,4.39876 -21.83663,12.73567 -9.38077,8.33691 -15.43287,20.38664 -5.96758,11.97462 -6.87316,25.51515 -0.90559,13.54053 3.40716,26.30957 4.39726,12.69396 12.58134,22.24986 8.18408,9.55589 19.93384,15.71554 11.83424,6.0845 25.1266,7.00701 16.53627,1.1476 31.38543,-5.75716 14.84918,-6.9047 24.76914,-19.73871 l 4.35183,3.86483 q -10.78127,13.8268 -26.86036,21.29397 -16.07372,7.38655 -34.03416,6.14015 -14.47915,-1.00487 -27.30426,-7.72495 -12.75134,-6.63399 -21.67813,-16.97019 -8.84228,-10.41134 -13.6442,-24.18601 -4.71739,-13.84977 -3.73096,-28.59926 0.98646,-14.74951 7.49884,-27.73896 6.59691,-13.06456 16.73827,-22.07745 10.22586,-9.08797 23.74266,-13.89894 13.60132,-4.88608 28.08047,-3.88123 18.03957,1.25196 32.97592,10.87162 14.93629,9.61966 23.76625,24.96944 z m -9.77828,5.9611 -4.95748,2.8139 q -6.69349,-11.63873 -18.13041,-18.91025 -11.35241,-7.34663 -25.04032,-8.29658 -10.99784,-0.76325 -21.33726,2.8917 -10.33947,3.65497 -18.1145,10.56483 -7.69052,6.83476 -12.64765,16.77423 -4.95709,9.93948 -5.70637,21.14264 -0.74925,11.20317 2.83869,21.73568 3.58795,10.53248 10.29212,18.4472 6.78862,7.83961 16.54587,12.88928 9.7573,5.04967 20.75511,5.81292 13.76705,0.95542 25.9927,-4.75485 12.22565,-5.71027 20.40689,-16.31673 l 4.35722,3.7842 q -9.04791,11.67989 -22.58262,17.94711 -13.45023,6.19208 -28.56228,5.14334 -16.21981,-1.12566 -29.44244,-10.22152 -13.21724,-9.17647 -20.34963,-23.76065 -7.05331,-14.57869 -5.9483,-31.10135 1.10504,-16.52267 10.0342,-29.99218 9.00827,-13.46403 23.31975,-20.64903 14.31686,-7.26558 30.53664,-6.13992 15.19122,1.05428 27.76105,9.21414 12.57521,8.07926 19.97908,20.98186 z m -9.92574,5.78897 -4.95746,2.81391 q -5.2728,-9.11096 -14.26947,-14.83661 -8.91218,-5.80073 -19.75175,-6.55299 -11.63079,-0.80718 -21.83527,4.3956 -10.19911,5.1222 -16.64335,14.71555 -6.36511,9.59883 -7.1575,21.44679 -0.79238,11.84795 4.23592,22.2375 5.10741,10.39503 14.52493,16.95958 9.4229,6.48397 21.05367,7.29113 10.83959,0.75228 20.52084,-3.75806 9.68125,-4.51038 16.12374,-12.88922 l 4.44715,3.62849 q -7.31458,9.53293 -18.3049,14.60023 -10.91121,5.07276 -23.17493,4.22166 -13.13411,-0.91151 -23.84814,-8.29482 -10.71403,-7.38328 -16.44192,-19.1979 -5.72787,-11.81464 -4.83308,-25.19395 0.89482,-13.37932 8.14276,-24.29341 7.24797,-10.91411 18.84604,-16.74895 11.59807,-5.83482 24.73216,-4.92331 12.26375,0.85111 22.39869,7.38449 10.21413,6.53889 16.1919,16.99433 z m -9.8574,5.95564 -4.87838,2.81933 q -3.84127,-6.74441 -10.47686,-10.92963 -6.55108,-4.26035 -14.54228,-4.81494 -12.97584,-0.90053 -22.77917,7.81192 -9.80329,8.71247 -10.68733,21.93058 -0.88402,13.21809 7.66872,23.20447 8.55275,9.98637 21.52859,10.88689 7.99122,0.5546 15.04898,-2.76128 7.13692,-3.31027 11.84064,-9.46176 l 4.36261,3.70362 q -5.57045,7.22479 -13.93725,11.09761 -8.3668,3.87284 -17.70306,3.22488 -7.51651,-0.52164 -14.20059,-3.98148 -6.60498,-3.45438 -11.24999,-8.87801 -4.64503,-5.42362 -7.10891,-12.55824 -2.45852,-7.21521 -1.94643,-14.87205 0.51208,-7.65684 3.90311,-14.38513 3.39644,-6.80889 8.72067,-11.54065 5.32421,-4.73176 12.32805,-7.24167 7.08299,-2.50442 14.59946,-1.98276 9.41539,0.65343 17.18387,5.727 7.77387,4.993 12.32553,13.00127 z m 48.07712,0.70903 5.93077,4.61264 q 4.15154,3.22883 4.33824,6.85167 0.18672,3.62284 -2.44757,7.13821 -5.92716,7.90958 -17.5191,-1.10603 -10.94496,-8.51241 -13.97475,-16.08526 l 4.93821,0.0153 q 2.45697,4.693 12.00012,12.11518 4.63677,3.60624 6.9824,3.77867 2.39953,0.21437 3.79899,-1.65318 1.35831,-1.81262 1.22379,-3.56911 -0.0394,-1.76948 -2.41175,-3.61453 l -5.82293,-4.52878 q -7.44043,-5.78677 -11.62677,-12.95501 -4.13247,-7.12633 -4.76271,-14.4848 -0.57633,-7.31655 1.65556,-14.62248 2.23192,-7.30594 7.17122,-13.89727 3.95142,-5.27307 8.94698,-8.86465 4.99555,-3.59158 10.87059,-5.282 5.92895,-1.64847 12.16692,-1.31781 6.33306,0.31768 13.18792,3.12776 6.94992,2.79708 13.5816,7.95484 10.40579,8.09308 17.03519,18.37858 6.67057,10.23057 8.38729,20.69448 l -4.89704,-0.0703 q -1.71265,-9.33051 -7.90377,-18.49267 -6.14996,-9.21708 -15.58525,-16.55536 -7.3865,-5.74483 -15.0176,-8.20231 -7.53605,-2.47046 -14.25808,-1.69962 -6.66814,0.81276 -12.51649,4.17579 -5.79444,3.40497 -10.11633,9.17238 -5.80366,7.7448 -7.38161,16.34182 -1.57794,8.59702 1.89014,17.29321 3.50924,8.64124 12.13582,15.35056 z m 5.92712,-7.90962 5.93079,4.61265 q 7.87174,6.12222 8.47358,13.63249 0.60185,7.51028 -4.5844,14.43115 -5.26859,7.03075 -13.46779,7.60905 -8.14531,0.62024 -17.90412,-6.96963 -6.84732,-5.32552 -11.58442,-11.53105 -4.64202,-6.21854 -6.20621,-12.21681 l 4.88428,-0.0266 q 3.19967,9.9654 15.86994,19.81967 8.14131,6.3319 14.29001,5.98454 6.24377,-0.36034 10.23635,-5.68832 3.99262,-5.328 3.61745,-10.74926 -0.33398,-5.47618 -6.64216,-10.38235 l -5.87685,-4.57069 q -11.05279,-8.5963 -12.28543,-20.16172 -1.13758,-11.5784 6.55947,-21.84989 7.69708,-10.27147 19.88952,-11.39555 12.2336,-1.17902 25.17344,8.88493 8.62657,6.70928 14.25591,14.91286 5.68325,8.24553 7.35068,16.49759 l -4.87153,0.1235 q -1.66336,-7.11867 -6.82599,-14.3507 -5.16264,-7.23203 -12.87261,-13.22845 -11.3763,-8.84789 -21.57214,-7.99669 -10.14192,0.89312 -16.6453,9.5717 -6.46225,8.62364 -5.59254,18.16798 0.91088,9.4894 10.40007,16.86963 z m 5.92716,-7.90957 6.14643,4.78037 q 10.94497,8.51242 11.98744,20.10381 1.09641,11.63334 -6.47715,21.74004 -7.69707,10.27148 -19.93067,11.45049 -12.19244,1.12408 -25.13228,-8.93986 -8.62657,-6.7093 -14.30983,-14.9548 -5.68327,-8.24552 -7.35068,-16.49758 l 4.87154,-0.12349 q 1.66335,7.11867 6.82597,14.35069 5.21658,7.27396 12.92657,13.27039 11.37627,8.84789 21.51819,7.95475 10.19583,-0.85119 16.69924,-9.52977 6.42107,-8.56871 5.55134,-18.11306 -0.81577,-9.50239 -10.19717,-16.79876 l -6.09251,-4.73843 q -7.87174,-6.12225 -8.51475,-13.57757 -0.64301,-7.45533 4.62558,-14.48608 5.26856,-7.03074 13.41386,-7.651 8.19923,-0.57828 17.95804,7.0116 6.84732,5.32549 11.48934,11.54404 4.68319,6.16361 6.24739,12.16188 l -4.8843,0.0266 q -3.19967,-9.96541 -15.81602,-19.77775 -8.14132,-6.33191 -14.38509,-5.97157 -6.14868,0.34736 -10.14128,5.67535 -4.03377,5.38291 -3.71252,10.76223 0.37516,5.42126 6.68332,10.32744 z m 9.48743,1.1191 -6.52385,-5.07392 q -4.15153,-3.22883 -4.37941,-6.79673 -0.18671,-3.62285 2.48873,-7.19315 5.92716,-7.90958 17.5191,1.10603 10.89104,8.47048 13.92083,16.04332 l -4.93818,-0.0153 q -2.45701,-4.69299 -11.94623,-12.07322 -4.63677,-3.60625 -7.03632,-3.82061 -2.34561,-0.17242 -3.74507,1.69512 -1.39945,1.86754 -1.31887,3.58208 0.0806,1.71457 2.39901,3.51769 l 6.68558,5.1997 q 7.27866,5.66096 11.20821,12.71642 3.98343,7.09737 4.46469,14.42692 0.52244,7.27458 -1.76339,14.53861 -2.24467,7.20907 -7.10161,13.69054 -3.95146,5.27307 -8.94701,8.86466 -4.99554,3.59159 -10.92451,5.24008 -5.87503,1.6904 -12.20809,1.37271 -6.23798,-0.33069 -13.14675,-3.18267 -6.89599,-2.75515 -13.52767,-7.91291 -10.4058,-8.0931 -17.08911,-18.42052 -6.67057,-10.23056 -8.38729,-20.69449 l 4.89705,0.0703 q 1.71264,9.33053 7.86259,18.5476 6.24502,9.20408 15.68034,16.54237 7.38649,5.74482 14.92252,8.2153 7.63111,2.45746 14.29926,1.64469 6.72203,-0.77084 12.51648,-4.17579 5.84834,-3.36303 10.17022,-9.13043 5.72134,-7.63497 7.31206,-16.13511 1.63141,-8.55518 -1.68723,-17.22234 -3.26519,-8.62532 -11.67608,-15.16688 z m 66.37059,70.28777 h 38.52015 q 8.78684,0 14.82228,-5.55519 6.12417,-5.55519 6.12417,-15.79758 0,-7.55159 -6.39046,-13.54077 -6.39043,-6.076 -14.55599,-6.076 H 457.8367 v 112.49264 h -6.39045 V 178.4355 h 61.24174 q 10.82823,0 19.08257,7.89878 8.25431,7.812 8.25431,17.96757 0,12.49918 -7.98804,20.05078 -7.98806,7.55158 -19.34884,7.55158 h -38.52016 z m 0,12.49917 h 38.52015 q 13.84595,0 23.78665,-9.46118 9.9407,-9.54798 9.9407,-24.39076 0,-12.75957 -10.20698,-22.39436 -10.11819,-9.7216 -23.52037,-9.7216 h -67.63218 v 124.99183 h -6.39045 V 165.93631 h 74.02263 q 10.56199,0 19.79262,5.29479 9.31941,5.29479 14.82227,14.23519 5.50289,8.85357 5.50289,18.83556 0,17.09958 -11.89334,28.64397 -11.80455,11.45757 -28.22444,11.45757 h -38.52016 z m 0,12.4992 h 38.52015 q 12.42586,0 23.07659,-5.9892 10.65076,-5.9892 17.04119,-16.66558 6.39043,-10.76317 6.39043,-23.69636 0,-11.71799 -6.39043,-21.96037 -6.30169,-10.32919 -17.04119,-16.49197 -10.7395,-6.16279 -23.07659,-6.16279 h -80.41306 v 137.491 h -6.39045 V 153.43713 h 86.80351 q 13.93472,0 26.18308,7.03079 12.24833,6.94399 19.43758,18.74877 7.27801,11.71798 7.27801,25.08516 0,15.45037 -6.83423,27.16836 -6.74546,11.718 -18.37251,18.31477 l 16.50863,47.39274 h -6.74545 l -15.79861,-44.44155 q -3.55025,1.38881 -5.41413,1.9096 l 14.82227,42.53195 h -6.74547 l -14.46723,-41.05634 q -0.79882,0.1736 -5.68039,0.6076 l 13.7572,40.44874 h -6.74548 l -13.57967,-40.27515 h -5.76917 l 12.9584,40.27515 h -6.74547 l -13.04714,-40.27515 h -23.52037 z m -3.55027,46.52473 h -6.39043 V 190.93467 h 48.46085 q 5.94667,0 10.20697,3.9928 4.34902,3.90599 4.34902,9.37438 0,15.10317 -14.55599,15.10317 h -38.52015 v -6.24959 h 38.52015 q 3.81651,0 5.94667,-1.90958 2.2189,-1.99641 2.2189,-6.944 0,-3.03799 -2.3964,-5.0344 -2.3077,-2.08319 -5.76917,-2.08319 h -42.07042 z"
       inkscape:connector-curvature="0" />
  </g>
</svg>
